<svg width="199" height="42" viewBox="0 0 199 42" fill="none" xmlns="http://www.w3.org/2000/svg">
<path fill-rule="evenodd" clip-rule="evenodd" d="M175.725 41.2032C175.728 41.23 175.736 41.2561 175.747 41.2807C175.878 41.5731 175.492 41.8192 175.282 41.5773L168.979 34.3197C168.656 33.9482 168.188 33.7348 167.696 33.7348H139.385C137.651 33.7348 136.784 33.7348 136.054 33.6632C128.927 32.9641 123.289 27.3255 122.59 20.1991C122.518 19.4687 122.518 18.6016 122.518 16.8674C122.518 15.1332 122.518 14.2661 122.59 13.5357C123.289 6.40928 128.927 0.770672 136.054 0.0716454C136.784 0 137.651 0 139.385 0H148.312C157.837 0 162.6 0 166.17 2.1497C167.985 3.24302 169.549 4.70872 170.757 6.45021C173.132 9.87438 173.439 14.6268 174.053 24.1317L174.612 32.7845L175.725 41.2032ZM169.354 28.943C168.817 28.806 168.261 28.7348 167.696 28.7348H139.385C137.533 28.7348 136.967 28.7288 136.542 28.687C131.791 28.221 128.032 24.462 127.566 19.711C127.524 19.2855 127.518 18.7201 127.518 16.8674C127.518 15.0147 127.524 14.4494 127.566 14.0238C128.032 9.27285 131.791 5.51378 136.542 5.04776C136.967 5.00602 137.533 5 139.385 5H148.312C153.171 5 156.465 5.00526 159.001 5.24628C161.457 5.47971 162.705 5.90004 163.59 6.43314C164.801 7.16201 165.843 8.13915 166.649 9.30014C167.238 10.1493 167.738 11.3676 168.129 13.8036C168.533 16.3189 168.75 19.6055 169.064 24.454L169.354 28.943Z" fill="#5DA0EF"/>
<path d="M20.264 6.56V29H14.416V6.56H20.264ZM5.848 6.56V29H0V6.56H5.848ZM17.544 15.434V19.956H2.856V15.434H17.544Z" fill="black"/>
<path d="M33.3264 6.22C35.4117 6.22 37.2477 6.54867 38.8344 7.206C40.4437 7.84067 41.8377 8.78133 43.0164 10.028L40.1944 13.802C39.2197 12.782 38.1657 12.0227 37.0324 11.524C35.9217 11.0027 34.6524 10.742 33.2244 10.742C32.3857 10.742 31.7057 10.8327 31.1844 11.014C30.663 11.1953 30.289 11.4447 30.0624 11.762C29.8357 12.0793 29.7224 12.442 29.7224 12.85C29.7224 13.326 29.9377 13.734 30.3684 14.074C30.8217 14.3913 31.547 14.6633 32.5444 14.89L36.3184 15.74C38.5624 16.2613 40.2057 17.0207 41.2484 18.018C42.291 19.0153 42.8124 20.3413 42.8124 21.996C42.8124 23.5827 42.4044 24.9313 41.5884 26.042C40.7724 27.13 39.6504 27.9573 38.2224 28.524C36.7944 29.068 35.1624 29.34 33.3264 29.34C31.8304 29.34 30.4024 29.1813 29.0424 28.864C27.6824 28.524 26.4584 28.048 25.3704 27.436C24.2824 26.824 23.3644 26.1213 22.6164 25.328L25.4384 21.418C26.005 22.0753 26.6964 22.6647 27.5124 23.186C28.351 23.6847 29.2577 24.0813 30.2324 24.376C31.2297 24.6707 32.2384 24.818 33.2584 24.818C34.0517 24.818 34.709 24.7387 35.2304 24.58C35.7744 24.4213 36.171 24.1833 36.4204 23.866C36.6697 23.5487 36.7944 23.1747 36.7944 22.744C36.7944 22.268 36.6244 21.8713 36.2844 21.554C35.9444 21.214 35.2984 20.9307 34.3464 20.704L30.1984 19.786C28.929 19.4913 27.7957 19.106 26.7984 18.63C25.8237 18.1313 25.053 17.474 24.4864 16.658C23.9197 15.8193 23.6364 14.7767 23.6364 13.53C23.6364 12.1247 24.0217 10.878 24.7924 9.79C25.563 8.67933 26.6737 7.80667 28.1244 7.172C29.575 6.53733 31.309 6.22 33.3264 6.22Z" fill="black"/>
<path d="M45.7884 29V6.56H63.2644V11.082H51.6364V15.638H60.8844V19.888H51.6364V24.478H63.7064V29H45.7884Z" fill="black"/>
<path d="M95.4962 22.574C95.0655 24.138 94.3742 25.43 93.4222 26.45C92.4702 27.4473 91.3368 28.184 90.0222 28.66C88.7075 29.1133 87.2568 29.34 85.6702 29.34C83.4035 29.34 81.4428 28.8867 79.7882 27.98C78.1335 27.0507 76.8642 25.7247 75.9802 24.002C75.0962 22.2793 74.6542 20.2053 74.6542 17.78C74.6542 15.3547 75.0962 13.2807 75.9802 11.558C76.8642 9.83533 78.1335 8.52067 79.7882 7.614C81.4428 6.68467 83.3922 6.22 85.6362 6.22C87.2002 6.22 88.6395 6.44667 89.9542 6.9C91.2688 7.33067 92.3795 7.99933 93.2862 8.906C94.1928 9.81267 94.8388 10.98 95.2242 12.408L90.0902 14.482C89.7728 13.0767 89.2515 12.1133 88.5262 11.592C87.8235 11.0707 86.9282 10.81 85.8402 10.81C84.7748 10.81 83.8455 11.0707 83.0522 11.592C82.2815 12.1133 81.6808 12.8953 81.2502 13.938C80.8422 14.958 80.6382 16.2387 80.6382 17.78C80.6382 19.2987 80.8308 20.5793 81.2162 21.622C81.6015 22.6647 82.1795 23.4467 82.9502 23.968C83.7435 24.4893 84.7182 24.75 85.8742 24.75C86.9622 24.75 87.8802 24.4553 88.6282 23.866C89.3988 23.254 89.9202 22.3247 90.1922 21.078L95.4962 22.574Z" fill="black"/>
<path d="M118.333 6.56V29H112.485V6.56H118.333ZM103.917 6.56V29H98.0687V6.56H103.917ZM115.613 15.434V19.956H100.925V15.434H115.613Z" fill="black"/>
<path d="M198.87 11.56V16.082H191.56V34H185.712V16.082H178.368V11.56H198.87Z" fill="black"/>
</svg>
